<svg width="22" height="22" viewBox="0 0 22 22" fill="none" xmlns="http://www.w3.org/2000/svg">
<g clip-path="url(#clip0_14_81)">
<path d="M15.5325 11.0982C15.1969 10.7625 14.6527 10.7625 14.3172 11.0982L14.0692 11.3461L13.8213 11.0982C13.4857 10.7625 12.9416 10.7625 12.606 11.0982C12.2704 11.4338 12.2703 11.9779 12.606 12.3135L12.8539 12.5614L12.606 12.8093C12.2703 13.145 12.2703 13.6891 12.606 14.0247C12.7738 14.1925 12.9937 14.2764 13.2136 14.2764C13.4336 14.2764 13.6535 14.1925 13.8213 14.0247L14.0692 13.7767L14.3172 14.0247C14.485 14.1925 14.7049 14.2764 14.9248 14.2764C15.1448 14.2764 15.3647 14.1925 15.5325 14.0247C15.8681 13.689 15.8681 13.1449 15.5325 12.8093L15.2846 12.5614L15.5325 12.3135C15.8681 11.9779 15.8681 11.4337 15.5325 11.0982Z" fill="white"/>
<path d="M6.46754 14.0247C6.63533 14.1925 6.85525 14.2764 7.07521 14.2764C7.29516 14.2764 7.51508 14.1925 7.68287 14.0247L7.9308 13.7767L8.17873 14.0247C8.34652 14.1925 8.56644 14.2764 8.78639 14.2764C9.00635 14.2764 9.22626 14.1925 9.39406 14.0247C9.72969 13.689 9.72969 13.1449 9.39406 12.8093L9.14613 12.5614L9.39406 12.3135C9.72969 11.9779 9.72969 11.4337 9.39406 11.0982C9.05843 10.7626 8.51432 10.7625 8.17873 11.0982L7.9308 11.3461L7.68287 11.0982C7.34724 10.7625 6.80313 10.7625 6.46754 11.0982C6.13196 11.4338 6.13191 11.9779 6.46754 12.3135L6.71547 12.5614L6.46754 12.8093C6.13191 13.1449 6.13191 13.689 6.46754 14.0247Z" fill="white"/>
<path d="M9.91717 17.4385C10.5143 16.8414 11.4857 16.8414 12.0827 17.4385C12.2505 17.6063 12.4705 17.6902 12.6904 17.6902C12.9104 17.6902 13.1303 17.6063 13.2981 17.4385C13.6337 17.1029 13.6337 16.5587 13.2981 16.2232C12.0309 14.956 9.96899 14.956 8.70179 16.2232C8.36617 16.5588 8.36617 17.1029 8.70179 17.4385C9.03742 17.7741 9.58158 17.7741 9.91717 17.4385Z" fill="white"/>
<path d="M18.5625 0.383179H3.4375C1.54206 0.383179 0 1.92524 0 3.82068V18.1792C0 20.0747 1.54206 21.6167 3.4375 21.6167H18.5625C20.4511 21.6167 21.993 20.0802 21.9998 18.1916C22.0015 17.717 21.6181 17.3309 21.1435 17.3292H21.1403C20.6672 17.3292 20.2827 17.7119 20.281 18.1855C20.2776 19.1298 19.5067 19.898 18.5625 19.898H3.4375C2.48978 19.898 1.71875 19.127 1.71875 18.1793V8.94573H20.2812V13.8917C20.2812 14.3663 20.666 14.7511 21.1406 14.7511C21.6153 14.7511 22 14.3663 22 13.8917V3.82068C22 1.92524 20.4579 0.383179 18.5625 0.383179ZM1.71875 7.22694V3.82068C1.71875 2.87296 2.48978 2.10193 3.4375 2.10193H18.5625C19.5102 2.10193 20.2812 2.87296 20.2812 3.82068V7.22694H1.71875Z" fill="white"/>
<path d="M4.65408 3.80505H4.20776C3.73313 3.80505 3.34839 4.1898 3.34839 4.66443C3.34839 5.13906 3.73313 5.5238 4.20776 5.5238H4.65408C5.12871 5.5238 5.51346 5.13906 5.51346 4.66443C5.51346 4.1898 5.12871 3.80505 4.65408 3.80505Z" fill="white"/>
<path d="M8.18057 3.80505H7.73425C7.25962 3.80505 6.87488 4.1898 6.87488 4.66443C6.87488 5.13906 7.25962 5.5238 7.73425 5.5238H8.18057C8.6552 5.5238 9.03994 5.13906 9.03994 4.66443C9.03994 4.1898 8.6552 3.80505 8.18057 3.80505Z" fill="white"/>
<path d="M11.7072 3.80505H11.2609C10.7862 3.80505 10.4015 4.1898 10.4015 4.66443C10.4015 5.13906 10.7862 5.5238 11.2609 5.5238H11.7072C12.1818 5.5238 12.5666 5.13906 12.5666 4.66443C12.5666 4.1898 12.1818 3.80505 11.7072 3.80505Z" fill="white"/>
</g>
<defs>
<clipPath id="clip0_14_81">
<rect width="22" height="22" fill="white"/>
</clipPath>
</defs>
</svg>
