<svg width="26" height="26" viewBox="0 0 26 26" fill="none" xmlns="http://www.w3.org/2000/svg">
<g clip-path="url(#clip0_14_90)">
<path d="M24.9023 17.6253C25.5589 17.3711 26 16.724 26 16.0151V12.7354C26 11.7633 25.2091 10.9724 24.237 10.9724H24.057C24.5906 10.2815 24.5414 9.28245 23.9081 8.64907L21.5889 6.32992C21.0877 5.82873 20.3183 5.68308 19.6742 5.96755C19.3282 6.12039 18.9161 6.04326 18.6486 5.77577C18.3811 5.50822 18.3039 5.09604 18.4567 4.75014C18.7412 4.10611 18.5956 3.33661 18.0943 2.83537L15.7752 0.516221C15.0879 -0.171046 13.9694 -0.171148 13.282 0.516221L2.82589 10.9724H1.763C0.790859 10.9724 0 11.7633 0 12.7354V16.0151C0 16.724 0.441133 17.3711 1.09771 17.6252C1.45034 17.7618 1.6873 18.1078 1.6873 18.4861C1.6873 18.8644 1.45034 19.2104 1.09771 19.347C0.441133 19.6013 0 20.2484 0 20.9572V24.2369C0 25.209 0.790859 25.9999 1.763 25.9999H24.237C25.2091 25.9999 26 25.209 26 24.2369V20.9572C26 20.2484 25.5589 19.6013 24.9023 19.347C24.5497 19.2104 24.3127 18.8644 24.3127 18.4861C24.3127 18.1078 24.5497 17.7618 24.9023 17.6253ZM14.3634 1.59777C14.4545 1.50667 14.6027 1.50667 14.6938 1.59772L17.0129 3.91687C17.0709 3.97493 17.0889 4.06145 17.0576 4.13226C16.6517 5.05149 16.8564 6.1466 17.5671 6.85721C18.2777 7.56788 19.3729 7.77257 20.2921 7.36661C20.3628 7.33541 20.4494 7.35335 20.5075 7.41142L22.8266 9.73052C22.9177 9.82162 22.9177 9.96987 22.8266 10.0609L21.9151 10.9724H17.9304L11.4596 4.50156L14.3634 1.59777ZM10.3781 5.58301L15.7675 10.9724H4.98874L10.3781 5.58301ZM1.52941 24.2369V20.9572C1.52941 20.875 1.57789 20.8011 1.65003 20.7732C2.5871 20.4102 3.21666 19.4912 3.21666 18.4861C3.21666 17.481 2.58705 16.5619 1.64993 16.199C1.57784 16.1711 1.52941 16.0972 1.52941 16.0151V12.7354C1.52941 12.6066 1.63423 12.5018 1.763 12.5018H19.1176V24.4705H1.763C1.63423 24.4705 1.52941 24.3657 1.52941 24.2369ZM24.4706 16.0151C24.4706 16.0972 24.4222 16.1711 24.35 16.1991C23.413 16.562 22.7833 17.4811 22.7833 18.4861C22.7833 19.4912 23.4129 20.4103 24.35 20.7732C24.4221 20.8011 24.4706 20.8751 24.4706 20.9572V24.2369C24.4706 24.3657 24.3658 24.4705 24.237 24.4705H20.6471V12.5018H24.237C24.3658 12.5018 24.4706 12.6066 24.4706 12.7354V16.0151Z" fill="white"/>
<path d="M5.35303 14.529H16.8236V16.0584H5.35303V14.529Z" fill="white"/>
<path d="M5.35303 17.5878H16.8236V19.1172H5.35303V17.5878Z" fill="white"/>
<path d="M5.35303 20.6466H16.8236V22.176H5.35303V20.6466Z" fill="white"/>
</g>
<defs>
<clipPath id="clip0_14_90">
<rect width="26" height="26" fill="white"/>
</clipPath>
</defs>
</svg>
