<svg width="17" height="22" viewBox="0 0 17 22" fill="none" xmlns="http://www.w3.org/2000/svg">
<path d="M14.3481 9.6791C13.582 8.73666 12.7063 7.98583 11.745 7.44588C11.9025 7.25961 12.0267 7.0412 12.1069 6.79779C12.4217 5.8392 11.9619 4.70052 10.7883 4.32957L12.4335 1.46077C12.6411 1.09871 12.4546 0.63757 12.0544 0.521211C10.8648 0.175355 9.62827 0 8.37891 0C7.12955 0 5.89299 0.175355 4.70345 0.521211C4.30272 0.637699 4.11696 1.09914 4.32429 1.46077L5.96952 4.32962C4.80055 4.69868 4.33495 5.83567 4.65107 6.7983C4.73103 7.04107 4.85521 7.25936 5.01312 7.44571C4.0517 7.98566 3.17591 8.73658 2.40977 9.6791C0.878324 11.5631 0 13.9396 0 16.1992C0 20.8867 3.7403 22 8.37891 22C13.0208 22 16.7578 20.8848 16.7578 16.1992C16.7578 13.9396 15.8795 11.5631 14.3481 9.6791ZM5.86506 1.55624C6.68736 1.37874 7.52976 1.28906 8.37891 1.28906C9.22806 1.28906 10.0705 1.37874 10.8927 1.55624L9.47336 4.03133C8.74638 3.92984 8.01165 3.92988 7.28449 4.03137L5.86506 1.55624ZM6.28616 5.58147C7.39539 5.21761 8.55589 5.14864 9.68412 5.37419C9.68546 5.37445 9.68683 5.3747 9.68816 5.37496C9.95113 5.42773 10.2123 5.49639 10.4708 5.58117C10.8085 5.6925 10.9931 6.05786 10.8824 6.39504C10.8019 6.63923 10.5894 6.80741 10.3395 6.83465C9.69684 6.63343 9.04136 6.53125 8.37891 6.53125C7.71779 6.53125 7.06359 6.633 6.4222 6.83341C6.16838 6.80728 5.95538 6.6379 5.87559 6.39564C5.76469 6.05786 5.94928 5.69246 6.28616 5.58147ZM8.37891 20.7195C3.34314 20.7195 1.28906 19.4038 1.28906 16.1992C1.28906 14.2595 2.08196 12.1261 3.41 10.4922C4.81057 8.76919 6.57521 7.82031 8.37891 7.82031C10.3643 7.82031 12.1009 8.95821 13.3478 10.4922C14.6758 12.1261 15.4688 14.2595 15.4688 16.1992C15.4688 19.4038 13.4147 20.7195 8.37891 20.7195Z" fill="white"/>
</svg>
