<svg width="21" height="19" viewBox="0 0 21 19" fill="none" xmlns="http://www.w3.org/2000/svg">
<path d="M17.4096 0.730812H15.6764V0.61875C15.6764 0.277063 15.3993 0 15.0576 0C14.7159 0 14.4389 0.277063 14.4389 0.61875V0.730812H10.8639V0.61875C10.8639 0.277063 10.5868 0 10.2451 0C9.90344 0 9.62638 0.277063 9.62638 0.61875V0.730812H6.05137V0.61875C6.05137 0.277063 5.77431 0 5.43263 0C5.09094 0 4.81387 0.277063 4.81387 0.61875V0.730812H3.07931C1.38119 0.730812 0 2.112 0 3.81012V15.3711C0 17.0693 1.38119 18.4504 3.07931 18.4504H17.4096C19.1077 18.4504 20.4889 17.0693 20.4889 15.3711V3.80944C20.4882 2.11131 19.1077 0.730812 17.4096 0.730812ZM19.2507 15.3704C19.2507 16.3859 18.425 17.2122 17.4096 17.2122H3.07931C2.06387 17.2122 1.23819 16.3859 1.23819 15.3704V3.80944C1.23819 2.794 2.06387 1.96762 3.07931 1.96762H4.8125V2.07969C4.8125 2.42137 5.08956 2.69844 5.43125 2.69844C5.77294 2.69844 6.05 2.42137 6.05 2.07969V1.96762H9.625V2.07969C9.625 2.42137 9.90206 2.69844 10.2437 2.69844C10.5854 2.69844 10.8625 2.42137 10.8625 2.07969V1.96762H14.4375V2.07969C14.4375 2.42137 14.7146 2.69844 15.0563 2.69844C15.3979 2.69844 15.675 2.42137 15.675 2.07969V1.96762H17.4082C18.4236 1.96762 19.2493 2.794 19.2493 3.80944V15.3704H19.2507Z" fill="white"/>
</svg>
